# xmcd
#
# Track frame offsets: 
#        150
#        15279
#        33039
#        53934
#        71436
#        87729
#        106722
#        123147
#        142269
#        163989
#        172959
#        192528
#        206088
#        224109
#        238458
#        254694
#        272274
#        287895
#        303255
#        315543
#
# Disc length: 4422 seconds
#
# Revision: 2
# Processed by: cddbd v1.5.2PL0 Copyright (c) Steve Scherf et al.
# Submitted via: ExactAudioCopy v0.95b2
#
DISCID=30114414
DTITLE=Various Artist - Radioactivity 0001
DYEAR=2000
DGENRE=Top 40
TTITLE0=Brian McKnight - Back At One
TTITLE1=TLC - Dear Lie
TTITLE2=Cliff Richard - Millenium Prayer
TTITLE3=Tin Tin Out feat Emma Bunton - What I Am
TTITLE4=Area-7 - Second Class Citizen
TTITLE5=R.E.M. - The Great Beyond
TTITLE6=Tom Jones and The Cardigans - Burning Down The House
TTITLE7=Red Hot Chilli Peppers - Otherside
TTITLE8=Various Artist - It's Only Rock 'N' Roll
TTITLE9=Regurgitator - I Wanna Be A Nudist
TTITLE10=Killing Heidi - Mascara
TTITLE11=Groove Terminator - Here Comes Another One
TTITLE12=Montell Jordan with LL Cool J - Get It On Tonight
TTITLE13=Salt N Pepa - The Brick Track vs Gitty Up
TTITLE14=Youngstown - I'll Be Your Everything
TTITLE15=Enrique Eglesias - Rhythm Divine
TTITLE16=Shaft - (Mucho Mambo) Sway
TTITLE17=Joanne - Are You Ready
TTITLE18=ATB - Don't Stop
TTITLE19=Alice Deejay - Better Off Alone
EXTD=
EXTT0=
EXTT1=
EXTT2=
EXTT3=
EXTT4=
EXTT5=
EXTT6=
EXTT7=
EXTT8=
EXTT9=
EXTT10=
EXTT11=
EXTT12=
EXTT13=
EXTT14=
EXTT15=
EXTT16=
EXTT17=
EXTT18=
EXTT19=
PLAYORDER=
